<mxfile host="65bd71144e">
    <diagram id="Gi0nfGOof33um8310omO" name="Страница 1">
        <mxGraphModel dx="697" dy="1562" grid="1" gridSize="10" guides="1" tooltips="1" connect="1" arrows="1" fold="1" page="1" pageScale="1" pageWidth="827" pageHeight="1169" background="none" math="0" shadow="0">
            <root>
                <mxCell id="0"/>
                <mxCell id="1" parent="0"/>
                <mxCell id="11" style="edgeStyle=none;html=1;entryX=0.5;entryY=0;entryDx=0;entryDy=0;fontSize=10;fontColor=#FFFFFF;rounded=0;" parent="1" source="2" target="7" edge="1">
                    <mxGeometry relative="1" as="geometry"/>
                </mxCell>
                <mxCell id="2" value="&lt;font style=&quot;font-size: 10px&quot;&gt;Начало&lt;/font&gt;" style="ellipse;whiteSpace=wrap;html=1;rounded=0;" parent="1" vertex="1">
                    <mxGeometry x="80" y="-1150" width="120" height="40" as="geometry"/>
                </mxCell>
                <mxCell id="9" value="" style="edgeStyle=none;html=1;fontSize=10;fontColor=#FFFFFF;rounded=0;" parent="1" source="7" target="8" edge="1">
                    <mxGeometry relative="1" as="geometry"/>
                </mxCell>
                <mxCell id="7" value="&lt;span style=&quot;font-family: &amp;#34;consolas&amp;#34; , &amp;#34;courier new&amp;#34; , monospace&quot;&gt;&lt;font style=&quot;font-size: 10px&quot;&gt;length&lt;/font&gt;&lt;/span&gt;" style="shape=parallelogram;perimeter=parallelogramPerimeter;whiteSpace=wrap;html=1;fixedSize=1;labelBackgroundColor=none;fontSize=10;fontColor=#FFFFFF;rounded=0;" parent="1" vertex="1">
                    <mxGeometry x="80" y="-1080" width="120" height="30" as="geometry"/>
                </mxCell>
                <mxCell id="13" value="" style="edgeStyle=none;html=1;fontSize=10;fontColor=#FFFFFF;rounded=0;" parent="1" source="8" edge="1">
                    <mxGeometry relative="1" as="geometry">
                        <mxPoint x="140" y="-950" as="targetPoint"/>
                    </mxGeometry>
                </mxCell>
                <mxCell id="8" value="textArray.Length = length&lt;br&gt;i = 0" style="rounded=0;whiteSpace=wrap;html=1;labelBackgroundColor=none;fontSize=10;fontColor=#FFFFFF;" parent="1" vertex="1">
                    <mxGeometry x="80" y="-1020" width="120" height="40" as="geometry"/>
                </mxCell>
                <mxCell id="17" style="edgeStyle=none;html=1;entryX=0;entryY=0.5;entryDx=0;entryDy=0;fontSize=10;fontColor=#FFFFFF;rounded=0;" parent="1" source="15" edge="1">
                    <mxGeometry relative="1" as="geometry">
                        <Array as="points">
                            <mxPoint x="40" y="-860"/>
                            <mxPoint x="40" y="-930"/>
                        </Array>
                        <mxPoint x="80" y="-930" as="targetPoint"/>
                    </mxGeometry>
                </mxCell>
                <mxCell id="15" value="&lt;span&gt;textArray[i]&lt;br&gt;i++&lt;br&gt;&lt;/span&gt;" style="shape=parallelogram;perimeter=parallelogramPerimeter;whiteSpace=wrap;html=1;fixedSize=1;labelBackgroundColor=none;fontSize=10;fontColor=#FFFFFF;rounded=0;" parent="1" vertex="1">
                    <mxGeometry x="80" y="-880" width="120" height="40" as="geometry"/>
                </mxCell>
                <mxCell id="20" value="" style="endArrow=classic;html=1;fontSize=10;fontColor=#FFFFFF;exitX=1;exitY=0.5;exitDx=0;exitDy=0;rounded=0;" parent="1" edge="1">
                    <mxGeometry relative="1" as="geometry">
                        <mxPoint x="200" y="-930" as="sourcePoint"/>
                        <mxPoint x="140" y="-800" as="targetPoint"/>
                        <Array as="points">
                            <mxPoint x="240" y="-930"/>
                            <mxPoint x="240" y="-820"/>
                            <mxPoint x="140" y="-820"/>
                        </Array>
                    </mxGeometry>
                </mxCell>
                <mxCell id="21" value="false" style="edgeLabel;resizable=0;html=1;align=center;verticalAlign=middle;labelBackgroundColor=none;fontSize=10;fontColor=#FFFFFF;rounded=0;" parent="20" connectable="0" vertex="1">
                    <mxGeometry relative="1" as="geometry">
                        <mxPoint x="-20" y="-115" as="offset"/>
                    </mxGeometry>
                </mxCell>
                <mxCell id="22" value="" style="endArrow=classic;html=1;fontSize=10;fontColor=#FFFFFF;exitX=0.5;exitY=1;exitDx=0;exitDy=0;entryX=0.5;entryY=0;entryDx=0;entryDy=0;rounded=0;" parent="1" target="15" edge="1">
                    <mxGeometry relative="1" as="geometry">
                        <mxPoint x="140" y="-910" as="sourcePoint"/>
                        <mxPoint x="230" y="-900" as="targetPoint"/>
                    </mxGeometry>
                </mxCell>
                <mxCell id="23" value="true" style="edgeLabel;resizable=0;html=1;align=center;verticalAlign=middle;labelBackgroundColor=none;fontSize=10;fontColor=#FFFFFF;rounded=0;" parent="22" connectable="0" vertex="1">
                    <mxGeometry relative="1" as="geometry">
                        <mxPoint x="10" as="offset"/>
                    </mxGeometry>
                </mxCell>
                <mxCell id="28" style="edgeStyle=none;html=1;entryX=0;entryY=0.5;entryDx=0;entryDy=0;fontSize=10;fontColor=#FFFFFF;exitX=0;exitY=0.5;exitDx=0;exitDy=0;rounded=0;" parent="1" source="89" edge="1">
                    <mxGeometry relative="1" as="geometry">
                        <mxPoint x="90" y="-640" as="sourcePoint"/>
                        <Array as="points">
                            <mxPoint x="40" y="-580"/>
                            <mxPoint x="40" y="-710"/>
                        </Array>
                        <mxPoint x="80" y="-710" as="targetPoint"/>
                    </mxGeometry>
                </mxCell>
                <mxCell id="30" value="" style="endArrow=classic;html=1;fontSize=10;fontColor=#FFFFFF;exitX=1;exitY=0.5;exitDx=0;exitDy=0;rounded=0;" parent="1" edge="1">
                    <mxGeometry relative="1" as="geometry">
                        <mxPoint x="200" y="-710" as="sourcePoint"/>
                        <mxPoint x="140" y="-520" as="targetPoint"/>
                        <Array as="points">
                            <mxPoint x="240" y="-710"/>
                            <mxPoint x="240" y="-540"/>
                            <mxPoint x="140" y="-540"/>
                        </Array>
                    </mxGeometry>
                </mxCell>
                <mxCell id="31" value="false" style="edgeLabel;resizable=0;html=1;align=center;verticalAlign=middle;labelBackgroundColor=none;fontSize=10;fontColor=#FFFFFF;rounded=0;" parent="30" connectable="0" vertex="1">
                    <mxGeometry relative="1" as="geometry">
                        <mxPoint x="-20" y="-135" as="offset"/>
                    </mxGeometry>
                </mxCell>
                <mxCell id="32" value="" style="endArrow=classic;html=1;fontSize=10;fontColor=#FFFFFF;exitX=0.5;exitY=1;exitDx=0;exitDy=0;entryX=0.5;entryY=0;entryDx=0;entryDy=0;rounded=0;" parent="1" edge="1">
                    <mxGeometry relative="1" as="geometry">
                        <mxPoint x="140" y="-690" as="sourcePoint"/>
                        <mxPoint x="140" y="-660" as="targetPoint"/>
                    </mxGeometry>
                </mxCell>
                <mxCell id="33" value="true" style="edgeLabel;resizable=0;html=1;align=center;verticalAlign=middle;labelBackgroundColor=none;fontSize=10;fontColor=#FFFFFF;rounded=0;" parent="32" connectable="0" vertex="1">
                    <mxGeometry relative="1" as="geometry">
                        <mxPoint x="10" as="offset"/>
                    </mxGeometry>
                </mxCell>
                <mxCell id="91" value="" style="edgeStyle=none;html=1;fontSize=10;fontColor=#FFFFFF;rounded=0;" parent="1" source="34" target="89" edge="1">
                    <mxGeometry relative="1" as="geometry"/>
                </mxCell>
                <mxCell id="34" value="&lt;span&gt;textArray[l]&lt;/span&gt;" style="shape=document;whiteSpace=wrap;html=1;boundedLbl=1;labelBackgroundColor=none;fontSize=10;fontColor=#FFFFFF;rounded=0;" parent="1" vertex="1">
                    <mxGeometry x="80" y="-660" width="120" height="40" as="geometry"/>
                </mxCell>
                <mxCell id="36" value="" style="edgeStyle=none;html=1;fontSize=10;fontColor=#FFFFFF;rounded=0;" parent="1" source="35" edge="1">
                    <mxGeometry relative="1" as="geometry">
                        <Array as="points">
                            <mxPoint x="140" y="-740"/>
                        </Array>
                        <mxPoint x="140" y="-730" as="targetPoint"/>
                    </mxGeometry>
                </mxCell>
                <mxCell id="35" value="&lt;span&gt;l = 0&lt;/span&gt;" style="rounded=0;whiteSpace=wrap;html=1;labelBackgroundColor=none;fontSize=10;fontColor=#FFFFFF;" parent="1" vertex="1">
                    <mxGeometry x="80" y="-800" width="120" height="40" as="geometry"/>
                </mxCell>
                <mxCell id="40" value="" style="endArrow=classic;html=1;fontSize=10;fontColor=#FFFFFF;exitX=1;exitY=0.5;exitDx=0;exitDy=0;rounded=0;" parent="1" edge="1">
                    <mxGeometry relative="1" as="geometry">
                        <mxPoint x="200" y="-430" as="sourcePoint"/>
                        <mxPoint x="140" y="-110" as="targetPoint"/>
                        <Array as="points">
                            <mxPoint x="280" y="-430"/>
                            <mxPoint x="280" y="-130"/>
                            <mxPoint x="140" y="-130"/>
                        </Array>
                    </mxGeometry>
                </mxCell>
                <mxCell id="42" value="" style="endArrow=classic;html=1;fontSize=10;fontColor=#FFFFFF;exitX=0.5;exitY=1;exitDx=0;exitDy=0;entryX=0.5;entryY=0;entryDx=0;entryDy=0;rounded=0;" parent="1" edge="1">
                    <mxGeometry relative="1" as="geometry">
                        <mxPoint x="140" y="-410" as="sourcePoint"/>
                        <mxPoint x="140" y="-380" as="targetPoint"/>
                    </mxGeometry>
                </mxCell>
                <mxCell id="43" value="true" style="edgeLabel;resizable=0;html=1;align=center;verticalAlign=middle;labelBackgroundColor=none;fontSize=10;fontColor=#FFFFFF;rounded=0;" parent="42" connectable="0" vertex="1">
                    <mxGeometry relative="1" as="geometry">
                        <mxPoint x="10" as="offset"/>
                    </mxGeometry>
                </mxCell>
                <mxCell id="45" value="" style="edgeStyle=none;html=1;fontSize=10;fontColor=#FFFFFF;rounded=0;" parent="1" source="46" edge="1">
                    <mxGeometry relative="1" as="geometry">
                        <Array as="points">
                            <mxPoint x="140" y="-460"/>
                        </Array>
                        <mxPoint x="140" y="-450" as="targetPoint"/>
                    </mxGeometry>
                </mxCell>
                <mxCell id="46" value="&lt;span&gt;newLength = 0&lt;br&gt;j = 0&lt;br&gt;&lt;/span&gt;" style="rounded=0;whiteSpace=wrap;html=1;labelBackgroundColor=none;fontSize=10;fontColor=#FFFFFF;" parent="1" vertex="1">
                    <mxGeometry x="80" y="-520" width="120" height="40" as="geometry"/>
                </mxCell>
                <mxCell id="47" value="textArray[j].Length &amp;lt;= 3" style="rhombus;whiteSpace=wrap;html=1;labelBackgroundColor=none;fontSize=10;fontColor=#FFFFFF;rounded=0;" parent="1" vertex="1">
                    <mxGeometry x="70" y="-380" width="140" height="50" as="geometry"/>
                </mxCell>
                <mxCell id="48" value="" style="endArrow=classic;html=1;fontSize=10;fontColor=#FFFFFF;exitX=0.5;exitY=1;exitDx=0;exitDy=0;rounded=0;" parent="1" source="47" edge="1">
                    <mxGeometry relative="1" as="geometry">
                        <mxPoint x="100" y="-290" as="sourcePoint"/>
                        <mxPoint x="140" y="-300" as="targetPoint"/>
                    </mxGeometry>
                </mxCell>
                <mxCell id="49" value="true" style="edgeLabel;resizable=0;html=1;align=center;verticalAlign=middle;labelBackgroundColor=none;fontSize=10;fontColor=#FFFFFF;rounded=0;" parent="48" connectable="0" vertex="1">
                    <mxGeometry relative="1" as="geometry">
                        <mxPoint x="10" as="offset"/>
                    </mxGeometry>
                </mxCell>
                <mxCell id="54" value="" style="edgeStyle=none;html=1;fontSize=10;fontColor=#FFFFFF;rounded=0;" parent="1" source="50" target="53" edge="1">
                    <mxGeometry relative="1" as="geometry"/>
                </mxCell>
                <mxCell id="50" value="&lt;span&gt;newLength++&lt;br&gt;&lt;/span&gt;" style="rounded=0;whiteSpace=wrap;html=1;labelBackgroundColor=none;fontSize=10;fontColor=#FFFFFF;" parent="1" vertex="1">
                    <mxGeometry x="80" y="-300" width="120" height="40" as="geometry"/>
                </mxCell>
                <mxCell id="51" value="" style="endArrow=classic;html=1;fontSize=10;fontColor=#FFFFFF;exitX=1;exitY=0.5;exitDx=0;exitDy=0;rounded=0;" parent="1" source="47" edge="1">
                    <mxGeometry relative="1" as="geometry">
                        <mxPoint x="280" y="-280" as="sourcePoint"/>
                        <mxPoint x="140" y="-230" as="targetPoint"/>
                        <Array as="points">
                            <mxPoint x="240" y="-355"/>
                            <mxPoint x="240" y="-230"/>
                        </Array>
                    </mxGeometry>
                </mxCell>
                <mxCell id="52" value="false" style="edgeLabel;resizable=0;html=1;align=center;verticalAlign=middle;labelBackgroundColor=none;fontSize=10;fontColor=#FFFFFF;rounded=0;" parent="51" connectable="0" vertex="1">
                    <mxGeometry relative="1" as="geometry">
                        <mxPoint x="-30" y="-112" as="offset"/>
                    </mxGeometry>
                </mxCell>
                <mxCell id="53" value="&lt;span&gt;j++&lt;br&gt;&lt;/span&gt;" style="rounded=0;whiteSpace=wrap;html=1;labelBackgroundColor=none;fontSize=10;fontColor=#FFFFFF;" parent="1" vertex="1">
                    <mxGeometry x="80" y="-200" width="120" height="40" as="geometry"/>
                </mxCell>
                <mxCell id="55" value="" style="endArrow=classic;html=1;fontSize=10;fontColor=#FFFFFF;entryX=0;entryY=0.5;entryDx=0;entryDy=0;exitX=0;exitY=0.75;exitDx=0;exitDy=0;rounded=0;" parent="1" source="53" edge="1">
                    <mxGeometry relative="1" as="geometry">
                        <mxPoint x="-10" y="-170" as="sourcePoint"/>
                        <mxPoint x="80" y="-430" as="targetPoint"/>
                        <Array as="points">
                            <mxPoint x="40" y="-170"/>
                            <mxPoint x="40" y="-430"/>
                        </Array>
                    </mxGeometry>
                </mxCell>
                <mxCell id="57" value="false" style="edgeLabel;resizable=0;html=1;align=center;verticalAlign=middle;labelBackgroundColor=none;fontSize=10;fontColor=#FFFFFF;rounded=0;" parent="1" connectable="0" vertex="1">
                    <mxGeometry x="220" y="-439.9966666666667" as="geometry"/>
                </mxCell>
                <mxCell id="73" value="" style="endArrow=classic;html=1;fontSize=10;fontColor=#FFFFFF;exitX=1;exitY=0.5;exitDx=0;exitDy=0;rounded=0;" parent="1" edge="1">
                    <mxGeometry relative="1" as="geometry">
                        <mxPoint x="200" y="-20" as="sourcePoint"/>
                        <mxPoint x="140" y="360" as="targetPoint"/>
                        <Array as="points">
                            <mxPoint x="280" y="-20"/>
                            <mxPoint x="280" y="330"/>
                            <mxPoint x="140" y="330"/>
                        </Array>
                    </mxGeometry>
                </mxCell>
                <mxCell id="74" value="" style="endArrow=classic;html=1;fontSize=10;fontColor=#FFFFFF;exitX=0.5;exitY=1;exitDx=0;exitDy=0;entryX=0.5;entryY=0;entryDx=0;entryDy=0;rounded=0;" parent="1" edge="1">
                    <mxGeometry relative="1" as="geometry">
                        <mxPoint x="140" as="sourcePoint"/>
                        <mxPoint x="140" y="30" as="targetPoint"/>
                    </mxGeometry>
                </mxCell>
                <mxCell id="75" value="true" style="edgeLabel;resizable=0;html=1;align=center;verticalAlign=middle;labelBackgroundColor=none;fontSize=10;fontColor=#FFFFFF;rounded=0;" parent="74" connectable="0" vertex="1">
                    <mxGeometry relative="1" as="geometry">
                        <mxPoint x="10" as="offset"/>
                    </mxGeometry>
                </mxCell>
                <mxCell id="76" value="textArray[k].Length &amp;lt;= 3" style="rhombus;whiteSpace=wrap;html=1;labelBackgroundColor=none;fontSize=10;fontColor=#FFFFFF;rounded=0;" parent="1" vertex="1">
                    <mxGeometry x="70" y="30" width="140" height="50" as="geometry"/>
                </mxCell>
                <mxCell id="77" value="" style="endArrow=classic;html=1;fontSize=10;fontColor=#FFFFFF;exitX=0.5;exitY=1;exitDx=0;exitDy=0;rounded=0;" parent="1" source="76" edge="1">
                    <mxGeometry relative="1" as="geometry">
                        <mxPoint x="100" y="120" as="sourcePoint"/>
                        <mxPoint x="140" y="110" as="targetPoint"/>
                    </mxGeometry>
                </mxCell>
                <mxCell id="78" value="true" style="edgeLabel;resizable=0;html=1;align=center;verticalAlign=middle;labelBackgroundColor=none;fontSize=10;fontColor=#FFFFFF;rounded=0;" parent="77" connectable="0" vertex="1">
                    <mxGeometry relative="1" as="geometry">
                        <mxPoint x="10" as="offset"/>
                    </mxGeometry>
                </mxCell>
                <mxCell id="92" value="" style="edgeStyle=none;html=1;fontSize=10;fontColor=#FFFFFF;rounded=0;" parent="1" source="80" target="88" edge="1">
                    <mxGeometry relative="1" as="geometry"/>
                </mxCell>
                <mxCell id="80" value="newTextArray[count] = textArray[k]&lt;span&gt;&lt;br&gt;&lt;/span&gt;" style="rounded=0;whiteSpace=wrap;html=1;labelBackgroundColor=none;fontSize=10;fontColor=#FFFFFF;" parent="1" vertex="1">
                    <mxGeometry x="80" y="110" width="120" height="40" as="geometry"/>
                </mxCell>
                <mxCell id="81" value="" style="endArrow=classic;html=1;fontSize=10;fontColor=#FFFFFF;exitX=1;exitY=0.5;exitDx=0;exitDy=0;rounded=0;" parent="1" source="76" edge="1">
                    <mxGeometry relative="1" as="geometry">
                        <mxPoint x="280" y="130" as="sourcePoint"/>
                        <mxPoint x="140" y="240" as="targetPoint"/>
                        <Array as="points">
                            <mxPoint x="240" y="55"/>
                            <mxPoint x="240" y="240"/>
                            <mxPoint x="190" y="240"/>
                        </Array>
                    </mxGeometry>
                </mxCell>
                <mxCell id="82" value="false" style="edgeLabel;resizable=0;html=1;align=center;verticalAlign=middle;labelBackgroundColor=none;fontSize=10;fontColor=#FFFFFF;rounded=0;" parent="81" connectable="0" vertex="1">
                    <mxGeometry relative="1" as="geometry">
                        <mxPoint x="-22" y="-141" as="offset"/>
                    </mxGeometry>
                </mxCell>
                <mxCell id="83" value="&lt;span&gt;k++&lt;br&gt;&lt;/span&gt;" style="rounded=0;whiteSpace=wrap;html=1;labelBackgroundColor=none;fontSize=10;fontColor=#FFFFFF;" parent="1" vertex="1">
                    <mxGeometry x="80" y="260" width="120" height="40" as="geometry"/>
                </mxCell>
                <mxCell id="84" value="" style="endArrow=classic;html=1;fontSize=10;fontColor=#FFFFFF;entryX=0;entryY=0.5;entryDx=0;entryDy=0;exitX=0;exitY=0.5;exitDx=0;exitDy=0;rounded=0;" parent="1" source="83" edge="1">
                    <mxGeometry relative="1" as="geometry">
                        <mxPoint x="-10" y="240" as="sourcePoint"/>
                        <mxPoint x="80" y="-20" as="targetPoint"/>
                        <Array as="points">
                            <mxPoint x="40" y="280"/>
                            <mxPoint x="40" y="-20"/>
                        </Array>
                    </mxGeometry>
                </mxCell>
                <mxCell id="85" value="false" style="edgeLabel;resizable=0;html=1;align=center;verticalAlign=middle;labelBackgroundColor=none;fontSize=10;fontColor=#FFFFFF;rounded=0;" parent="1" connectable="0" vertex="1">
                    <mxGeometry x="220" y="-29.996666666666727" as="geometry"/>
                </mxCell>
                <mxCell id="87" value="" style="edgeStyle=none;html=1;fontSize=10;fontColor=#FFFFFF;rounded=0;" parent="1" source="86" edge="1">
                    <mxGeometry relative="1" as="geometry">
                        <mxPoint x="140" y="-40" as="targetPoint"/>
                    </mxGeometry>
                </mxCell>
                <mxCell id="86" value="newTextArray.Length = newLength&lt;br&gt;count = 0&lt;br&gt;k = 0" style="rounded=0;whiteSpace=wrap;html=1;labelBackgroundColor=none;fontSize=10;fontColor=#FFFFFF;" parent="1" vertex="1">
                    <mxGeometry x="60" y="-110" width="160" height="40" as="geometry"/>
                </mxCell>
                <mxCell id="93" value="" style="edgeStyle=none;html=1;fontSize=10;fontColor=#FFFFFF;rounded=0;" parent="1" source="88" target="83" edge="1">
                    <mxGeometry relative="1" as="geometry"/>
                </mxCell>
                <mxCell id="88" value="&lt;span&gt;newTextArray[count]&lt;/span&gt;" style="shape=document;whiteSpace=wrap;html=1;boundedLbl=1;labelBackgroundColor=none;fontSize=10;fontColor=#FFFFFF;rounded=0;" parent="1" vertex="1">
                    <mxGeometry x="80" y="180" width="120" height="40" as="geometry"/>
                </mxCell>
                <mxCell id="89" value="l++" style="whiteSpace=wrap;html=1;fontSize=10;fontColor=#FFFFFF;labelBackgroundColor=none;rounded=0;" parent="1" vertex="1">
                    <mxGeometry x="80" y="-600" width="120" height="40" as="geometry"/>
                </mxCell>
                <mxCell id="94" value="&lt;span style=&quot;font-size: 10px&quot;&gt;Конец&lt;/span&gt;" style="ellipse;whiteSpace=wrap;html=1;rounded=0;" parent="1" vertex="1">
                    <mxGeometry x="80" y="360" width="120" height="40" as="geometry"/>
                </mxCell>
                <mxCell id="95" value="&lt;span style=&quot;color: rgb(255 , 255 , 255) ; font-size: 10px&quot;&gt;i &amp;lt;&amp;nbsp; length&lt;/span&gt;" style="shape=hexagon;perimeter=hexagonPerimeter2;whiteSpace=wrap;html=1;fixedSize=1;" vertex="1" parent="1">
                    <mxGeometry x="80" y="-950" width="120" height="40" as="geometry"/>
                </mxCell>
                <mxCell id="96" value="&lt;span style=&quot;color: rgb(255 , 255 , 255) ; font-size: 10px&quot;&gt;k &amp;lt;&amp;nbsp; length&lt;/span&gt;" style="shape=hexagon;perimeter=hexagonPerimeter2;whiteSpace=wrap;html=1;fixedSize=1;" vertex="1" parent="1">
                    <mxGeometry x="80" y="-40" width="120" height="40" as="geometry"/>
                </mxCell>
                <mxCell id="97" value="&lt;span style=&quot;color: rgb(255 , 255 , 255) ; font-size: 10px&quot;&gt;l &amp;lt;&amp;nbsp; length&lt;/span&gt;" style="shape=hexagon;perimeter=hexagonPerimeter2;whiteSpace=wrap;html=1;fixedSize=1;" vertex="1" parent="1">
                    <mxGeometry x="80" y="-730" width="120" height="40" as="geometry"/>
                </mxCell>
                <mxCell id="98" value="&lt;span style=&quot;color: rgb(255 , 255 , 255) ; font-size: 10px&quot;&gt;j &amp;lt;&amp;nbsp; length&lt;/span&gt;" style="shape=hexagon;perimeter=hexagonPerimeter2;whiteSpace=wrap;html=1;fixedSize=1;" vertex="1" parent="1">
                    <mxGeometry x="80" y="-450" width="120" height="40" as="geometry"/>
                </mxCell>
            </root>
        </mxGraphModel>
    </diagram>
</mxfile>